<svg width="15" height="15" viewBox="0 0 15 15" fill="none" xmlns="http://www.w3.org/2000/svg"><mask id="a" style="mask-type:alpha" maskUnits="userSpaceOnUse" x="1" y="1" width="13" height="13"><path fill-rule="evenodd" clip-rule="evenodd" d="M10.167 8.167a3.26 3.26 0 0 1-.37-.02.333.333 0 0 1 .073-.664 2.67 2.67 0 0 0 2.963-2.65 2.67 2.67 0 0 0-2.666-2.667A2.67 2.67 0 0 0 7.516 5.13a.334.334 0 0 1-.663.074A3.337 3.337 0 0 1 10.166 1.5 3.337 3.337 0 0 1 13.5 4.832a3.337 3.337 0 0 1-3.333 3.333Zm-5 2a.334.334 0 0 1-.236-.569l4.666-4.667a.334.334 0 0 1 .472.472l-4.667 4.666a.332.332 0 0 1-.236.098Zm-3.667 0A3.337 3.337 0 0 0 4.833 13.5h.001a3.337 3.337 0 0 0 3.313-3.703.334.334 0 0 0-.663.074 2.67 2.67 0 0 1-2.65 2.963 2.67 2.67 0 0 1-2.667-2.667 2.67 2.67 0 0 1 2.963-2.65.333.333 0 1 0 .073-.663A3.337 3.337 0 0 0 1.5 10.167Z" fill="#fff"/></mask><g mask="url(#a)"><rect x="-1.875" y="-1.055" width="18.75" height="18.75" rx="6.222" fill="#000"/></g></svg>