<svg width="10" height="10" viewBox="0 0 10 10" fill="none" xmlns="http://www.w3.org/2000/svg"><path d="M5 .9c1.335 0 1.493.006 2.02.03.488.022.753.104.929.172.233.09.4.2.575.374.175.175.283.342.374.575.068.176.15.441.172.929.024.527.03.685.03 2.02s-.006 1.493-.03 2.02c-.022.488-.104.753-.172.929-.09.233-.2.4-.374.575a1.55 1.55 0 0 1-.575.374c-.176.068-.441.15-.929.172-.527.024-.685.03-2.02.03s-1.493-.006-2.02-.03c-.488-.022-.753-.104-.929-.172-.233-.09-.4-.2-.575-.374a1.55 1.55 0 0 1-.374-.575c-.068-.176-.15-.441-.172-.929C.906 6.493.9 6.335.9 5s.006-1.493.03-2.02c.022-.488.104-.753.172-.929.09-.233.2-.4.374-.575.175-.175.342-.283.575-.374.176-.068.441-.15.929-.172C3.507.906 3.665.9 5 .9ZM5 0C3.642 0 3.472.006 2.939.03c-.533.024-.896.109-1.214.232A2.451 2.451 0 0 0 .839.84a2.45 2.45 0 0 0-.576.886c-.124.318-.209.681-.233 1.214C.006 3.472 0 3.642 0 5s.006 1.528.03 2.061c.024.533.109.896.233 1.214.127.329.298.608.576.886.278.278.557.449.886.577.318.123.681.208 1.214.232.533.024.703.03 2.061.03s1.528-.006 2.062-.03c.532-.024.895-.109 1.213-.232.329-.128.608-.3.886-.577.278-.278.449-.557.577-.886.123-.318.208-.681.232-1.214.024-.533.03-.703.03-2.061s-.006-1.528-.03-2.061c-.024-.533-.109-.896-.232-1.214A2.451 2.451 0 0 0 9.16.839a2.451 2.451 0 0 0-.886-.577C7.957.14 7.594.054 7.062.03 6.528.006 6.358 0 5 0Z" fill="#000"/><path d="M5.002 2.435a2.568 2.568 0 1 0 0 5.135 2.568 2.568 0 0 0 0-5.135Zm0 4.234a1.667 1.667 0 1 1 0-3.333 1.667 1.667 0 0 1 0 3.333ZM8.271 2.332a.6.6 0 1 1-1.2 0 .6.6 0 0 1 1.2 0Z" fill="#000"/></svg>