<svg width="12" height="12" viewBox="0 0 12 12" fill="none" xmlns="http://www.w3.org/2000/svg"><path fill-rule="evenodd" clip-rule="evenodd" d="M12 6A6 6 0 1 1 0 6a6 6 0 0 1 12 0Zm-2.877-.877c.484 0 .877.393.877.877a.908.908 0 0 1-.505.807c.014.084.02.168.02.26 0 1.347-1.564 2.435-3.501 2.435-1.937 0-3.502-1.088-3.502-2.435 0-.092.007-.183.021-.267a.878.878 0 0 1 .358-1.677c.232 0 .45.098.604.245.603-.442 1.438-.715 2.372-.743l.442-2.092a.17.17 0 0 1 .07-.098c.035-.021.077-.028.12-.021l1.452.309a.607.607 0 0 1 .554-.351c.344 0 .625.28.625.624a.626.626 0 0 1-1.25.029L6.583 2.75l-.4 1.874c.913.035 1.74.315 2.337.743a.842.842 0 0 1 .604-.245ZM4.625 6A.626.626 0 0 0 4 6.625a.626.626 0 0 0 1.25 0A.626.626 0 0 0 4.624 6Zm1.382 2.73c.239 0 1.053-.028 1.48-.456a.18.18 0 0 0 .015-.232.165.165 0 0 0-.232 0c-.274.267-.842.365-1.256.365-.414 0-.99-.098-1.256-.365a.165.165 0 0 0-.232 0 .165.165 0 0 0 0 .232c.421.42 1.242.456 1.481.456Zm.744-2.105c0 .343.28.624.624.624S8 6.97 8 6.625A.626.626 0 0 0 7.375 6a.626.626 0 0 0-.624.625Z" fill="#000"/></svg>